# xmcd
#
# Track frame offsets:
#	150
#	18446
#	31274
#	47310
#	65781
#	81315
#	97311
#	111043
#	126638
#	141614
#	158688
#	171581
#
# Disc length: 2533 seconds
#
# Revision: 1
# Processed by: cddbd v1.5PL3 Copyright (c) Steve Scherf et al.
# Submitted via: audiograbber 1.83.01
#
DISCID=b009e30c
DTITLE=Jack Caldwell - As Sweet As I Remember You
DYEAR=2004
DGENRE=
TTITLE0=As Sweet As I Remember You
TTITLE1=Springfield
TTITLE2=Like It Is
TTITLE3=Lake Water
TTITLE4=Time Rolls By
TTITLE5=Crickets
TTITLE6=Angels Fly Away Too
TTITLE7=Birthday Blessings
TTITLE8=Another Day
TTITLE9=Homefires
TTITLE10=I Painted This Song For You
TTITLE11=42
EXTD=
EXTT0=
EXTT1=
EXTT2=
EXTT3=
EXTT4=
EXTT5=
EXTT6=
EXTT7=
EXTT8=
EXTT9=
EXTT10=
EXTT11=
PLAYORDER=
